<mxfile host="app.diagrams.net" modified="2022-10-21T19:36:31.715Z" agent="5.0 (Macintosh; Intel Mac OS X 10_15_7) AppleWebKit/537.36 (KHTML, like Gecko) Chrome/106.0.0.0 Safari/537.36" etag="UcD55FPz5vDfRCD0yHJI" version="20.5.0" type="github">
  <diagram name="Page-1" id="9361dd3d-8414-5efd-6122-117bd74ce7a7">
    <mxGraphModel dx="2066" dy="731" grid="1" gridSize="10" guides="1" tooltips="1" connect="1" arrows="1" fold="1" page="0" pageScale="1.5" pageWidth="826" pageHeight="1169" background="none" math="0" shadow="0">
      <root>
        <mxCell id="0" />
        <mxCell id="1" parent="0" />
        <mxCell id="69" value="" style="fillColor=#DEE8FF;strokeColor=none" parent="1" vertex="1">
          <mxGeometry x="22.5" y="50" width="1570" height="1010" as="geometry" />
        </mxCell>
        <mxCell id="20" value="" style="fillColor=#CCD5EB" parent="1" vertex="1">
          <mxGeometry x="90" y="470" width="1460" height="390" as="geometry" />
        </mxCell>
        <mxCell id="2" value="" style="fillColor=#CC4125;strokeColor=#660000" parent="1" vertex="1">
          <mxGeometry x="200" y="150" width="10" height="100" as="geometry" />
        </mxCell>
        <mxCell id="3" value="Selecionar canais" style="edgeStyle=none;verticalLabelPosition=top;verticalAlign=bottom;labelPosition=left;align=right" parent="1" edge="1">
          <mxGeometry width="100" height="100" as="geometry">
            <mxPoint x="110" y="149.5" as="sourcePoint" />
            <mxPoint x="200" y="149.5" as="targetPoint" />
            <mxPoint x="35" as="offset" />
          </mxGeometry>
        </mxCell>
        <mxCell id="4" value="Frontend" style="shadow=1;fillColor=#A2C4C9;strokeColor=none" parent="1" vertex="1">
          <mxGeometry x="152.5" y="60" width="105" height="50" as="geometry" />
        </mxCell>
        <mxCell id="QTGd4cIYFPN5efrZr3Zm-106" style="edgeStyle=orthogonalEdgeStyle;rounded=0;orthogonalLoop=1;jettySize=auto;html=1;entryX=1.1;entryY=0.68;entryDx=0;entryDy=0;exitX=-0.05;exitY=0.68;exitDx=0;exitDy=0;exitPerimeter=0;entryPerimeter=0;" edge="1" parent="1" source="6" target="2">
          <mxGeometry relative="1" as="geometry" />
        </mxCell>
        <mxCell id="6" value="" style="fillColor=#CC4125;strokeColor=#660000" parent="1" vertex="1">
          <mxGeometry x="342.5" y="150" width="10" height="100" as="geometry" />
        </mxCell>
        <mxCell id="7" value="Sell Your Item" style="shadow=1;fillColor=#A2C4C9;strokeColor=none" parent="1" vertex="1">
          <mxGeometry x="295" y="60" width="105" height="50" as="geometry" />
        </mxCell>
        <mxCell id="8" value="" style="edgeStyle=none;endArrow=none;dashed=1" parent="1" source="7" target="6" edge="1">
          <mxGeometry x="272.3350694444445" y="165" width="100" height="100" as="geometry">
            <mxPoint x="347.2588734567901" y="110" as="sourcePoint" />
            <mxPoint x="347.5761959876544" y="165" as="targetPoint" />
          </mxGeometry>
        </mxCell>
        <mxCell id="9" value="channel list" style="edgeStyle=none;verticalLabelPosition=top;verticalAlign=bottom" parent="1" edge="1">
          <mxGeometry x="220" y="92" width="100" height="100" as="geometry">
            <mxPoint x="210" y="179.5" as="sourcePoint" />
            <mxPoint x="340" y="179.5" as="targetPoint" />
          </mxGeometry>
        </mxCell>
        <mxCell id="15" value="Bundle Groups &#xa;Middleend" style="shadow=1;fillColor=#A2C4C9;strokeColor=none" parent="1" vertex="1">
          <mxGeometry x="462.2839506172839" y="59.99999999999997" width="105" height="50" as="geometry" />
        </mxCell>
        <mxCell id="16" value="" style="edgeStyle=none;endArrow=none" parent="1" source="15" target="17" edge="1">
          <mxGeometry x="437.042824074074" y="270" width="100" height="100" as="geometry">
            <mxPoint x="514.542824074074" y="219.99999999999997" as="sourcePoint" />
            <mxPoint x="514.542824074074" y="239.99999999999997" as="targetPoint" />
          </mxGeometry>
        </mxCell>
        <mxCell id="QTGd4cIYFPN5efrZr3Zm-90" style="edgeStyle=orthogonalEdgeStyle;rounded=0;orthogonalLoop=1;jettySize=auto;html=1;entryX=1;entryY=0.5;entryDx=0;entryDy=0;" edge="1" parent="1" source="17" target="6">
          <mxGeometry relative="1" as="geometry" />
        </mxCell>
        <mxCell id="17" value="" style="fillColor=#CC4125;strokeColor=#660000" parent="1" vertex="1">
          <mxGeometry x="510" y="150" width="9.78" height="100" as="geometry" />
        </mxCell>
        <mxCell id="19" value="Persist/Update Item" style="edgeStyle=elbowEdgeStyle;elbow=vertical;verticalLabelPosition=top;verticalAlign=bottom" parent="1" edge="1">
          <mxGeometry x="350" y="218" width="100" height="100" as="geometry">
            <mxPoint x="352.5" y="180" as="sourcePoint" />
            <mxPoint x="509.78395061728406" y="180" as="targetPoint" />
          </mxGeometry>
        </mxCell>
        <mxCell id="33" value="" style="edgeStyle=elbowEdgeStyle;elbow=horizontal;endArrow=none;dashed=1" parent="1" source="4" target="2" edge="1">
          <mxGeometry x="230.00000000000003" y="310" width="100" height="100" as="geometry">
            <mxPoint x="230.00000000000003" y="410" as="sourcePoint" />
            <mxPoint x="330" y="310" as="targetPoint" />
          </mxGeometry>
        </mxCell>
        <mxCell id="40" value="- params:&#xa;- seller_id" style="shape=note;align=left" parent="1" vertex="1">
          <mxGeometry x="380" y="410" width="70.03" height="80" as="geometry" />
        </mxCell>
        <mxCell id="41" value="" style="edgeStyle=none;endArrow=none;dashed=1;entryX=0.5;entryY=0;entryDx=0;entryDy=0;" parent="1" source="40" target="QTGd4cIYFPN5efrZr3Zm-113" edge="1">
          <mxGeometry x="1030" y="180" width="100" height="100" as="geometry">
            <mxPoint x="1030" y="280" as="sourcePoint" />
            <mxPoint x="1130" y="180" as="targetPoint" />
          </mxGeometry>
        </mxCell>
        <mxCell id="71" value="rt submit_changes" style="rounded=1;fontStyle=1;fillColor=#FFD966;strokeColor=none" parent="1" vertex="1">
          <mxGeometry x="50" y="20" width="150" height="30" as="geometry" />
        </mxCell>
        <mxCell id="QTGd4cIYFPN5efrZr3Zm-89" value="" style="shape=umlLifeline;participant=umlActor;perimeter=lifelinePerimeter;whiteSpace=wrap;html=1;container=1;collapsible=0;recursiveResize=0;verticalAlign=top;spacingTop=36;outlineConnect=0;" vertex="1" parent="1">
          <mxGeometry x="70" y="105.56" width="20" height="580" as="geometry" />
        </mxCell>
        <mxCell id="QTGd4cIYFPN5efrZr3Zm-100" value="" style="fillColor=#CC4125;strokeColor=#660000" vertex="1" parent="1">
          <mxGeometry x="200" y="290" width="10" height="150" as="geometry" />
        </mxCell>
        <mxCell id="QTGd4cIYFPN5efrZr3Zm-101" value="" style="fillColor=#CC4125;strokeColor=#660000" vertex="1" parent="1">
          <mxGeometry x="342.5" y="320" width="10" height="80" as="geometry" />
        </mxCell>
        <mxCell id="QTGd4cIYFPN5efrZr3Zm-102" value="" style="fillColor=#CC4125;strokeColor=#660000" vertex="1" parent="1">
          <mxGeometry x="509.78" y="340" width="10" height="40" as="geometry" />
        </mxCell>
        <mxCell id="QTGd4cIYFPN5efrZr3Zm-107" value="Selecionar title" style="edgeStyle=none;verticalLabelPosition=top;verticalAlign=bottom;labelPosition=left;align=right" edge="1" parent="1">
          <mxGeometry y="164.89" width="100" height="100" as="geometry">
            <mxPoint x="110" y="314.39" as="sourcePoint" />
            <mxPoint x="200" y="314.39" as="targetPoint" />
            <mxPoint x="35" as="offset" />
          </mxGeometry>
        </mxCell>
        <mxCell id="QTGd4cIYFPN5efrZr3Zm-108" style="edgeStyle=orthogonalEdgeStyle;rounded=0;orthogonalLoop=1;jettySize=auto;html=1;entryX=1.1;entryY=0.68;entryDx=0;entryDy=0;exitX=-0.05;exitY=0.68;exitDx=0;exitDy=0;exitPerimeter=0;entryPerimeter=0;" edge="1" parent="1">
          <mxGeometry relative="1" as="geometry">
            <mxPoint x="342" y="382.89" as="sourcePoint" />
            <mxPoint x="211" y="382.89" as="targetPoint" />
          </mxGeometry>
        </mxCell>
        <mxCell id="QTGd4cIYFPN5efrZr3Zm-109" value="text title" style="edgeStyle=none;verticalLabelPosition=top;verticalAlign=bottom" edge="1" parent="1">
          <mxGeometry x="220" y="256.89" width="100" height="100" as="geometry">
            <mxPoint x="210" y="344.39" as="sourcePoint" />
            <mxPoint x="340" y="344.39" as="targetPoint" />
          </mxGeometry>
        </mxCell>
        <mxCell id="QTGd4cIYFPN5efrZr3Zm-110" style="edgeStyle=orthogonalEdgeStyle;rounded=0;orthogonalLoop=1;jettySize=auto;html=1;entryX=1;entryY=0.5;entryDx=0;entryDy=0;" edge="1" parent="1">
          <mxGeometry relative="1" as="geometry">
            <mxPoint x="510" y="364.89" as="sourcePoint" />
            <mxPoint x="352.5" y="364.89" as="targetPoint" />
          </mxGeometry>
        </mxCell>
        <mxCell id="QTGd4cIYFPN5efrZr3Zm-111" value="Persist/Update title Item" style="edgeStyle=elbowEdgeStyle;elbow=vertical;verticalLabelPosition=top;verticalAlign=bottom" edge="1" parent="1">
          <mxGeometry x="350" y="382.89" width="100" height="100" as="geometry">
            <mxPoint x="352.5" y="344.89" as="sourcePoint" />
            <mxPoint x="509.78395061728406" y="344.89" as="targetPoint" />
          </mxGeometry>
        </mxCell>
        <mxCell id="QTGd4cIYFPN5efrZr3Zm-112" value="" style="fillColor=#CC4125;strokeColor=#660000" vertex="1" parent="1">
          <mxGeometry x="200" y="480" width="10" height="130" as="geometry" />
        </mxCell>
        <mxCell id="QTGd4cIYFPN5efrZr3Zm-113" value="" style="fillColor=#CC4125;strokeColor=#660000" vertex="1" parent="1">
          <mxGeometry x="342.5" y="510" width="10" height="80" as="geometry" />
        </mxCell>
        <mxCell id="QTGd4cIYFPN5efrZr3Zm-114" value="" style="fillColor=#CC4125;strokeColor=#660000" vertex="1" parent="1">
          <mxGeometry x="509.78" y="530" width="10" height="40" as="geometry" />
        </mxCell>
        <mxCell id="QTGd4cIYFPN5efrZr3Zm-115" value="Upload de foto" style="edgeStyle=none;verticalLabelPosition=top;verticalAlign=bottom;labelPosition=left;align=right" edge="1" parent="1">
          <mxGeometry y="354.89" width="100" height="100" as="geometry">
            <mxPoint x="110" y="504.3899999999999" as="sourcePoint" />
            <mxPoint x="200" y="504.3899999999999" as="targetPoint" />
            <mxPoint x="35" as="offset" />
          </mxGeometry>
        </mxCell>
        <mxCell id="QTGd4cIYFPN5efrZr3Zm-116" style="edgeStyle=orthogonalEdgeStyle;rounded=0;orthogonalLoop=1;jettySize=auto;html=1;entryX=1.1;entryY=0.68;entryDx=0;entryDy=0;exitX=-0.05;exitY=0.68;exitDx=0;exitDy=0;exitPerimeter=0;entryPerimeter=0;" edge="1" parent="1">
          <mxGeometry relative="1" as="geometry">
            <mxPoint x="342" y="572.8899999999999" as="sourcePoint" />
            <mxPoint x="211" y="572.8899999999999" as="targetPoint" />
          </mxGeometry>
        </mxCell>
        <mxCell id="QTGd4cIYFPN5efrZr3Zm-117" value="request Bricks" style="edgeStyle=none;verticalLabelPosition=top;verticalAlign=bottom" edge="1" parent="1">
          <mxGeometry x="220" y="434.89" width="100" height="100" as="geometry">
            <mxPoint x="210" y="522.3899999999999" as="sourcePoint" />
            <mxPoint x="340" y="522.3899999999999" as="targetPoint" />
          </mxGeometry>
        </mxCell>
        <mxCell id="QTGd4cIYFPN5efrZr3Zm-118" style="edgeStyle=orthogonalEdgeStyle;rounded=0;orthogonalLoop=1;jettySize=auto;html=1;entryX=1;entryY=0.5;entryDx=0;entryDy=0;" edge="1" parent="1">
          <mxGeometry relative="1" as="geometry">
            <mxPoint x="510" y="554.8899999999999" as="sourcePoint" />
            <mxPoint x="352.5" y="554.8899999999999" as="targetPoint" />
          </mxGeometry>
        </mxCell>
        <mxCell id="QTGd4cIYFPN5efrZr3Zm-119" value="get data Item" style="edgeStyle=elbowEdgeStyle;elbow=vertical;verticalLabelPosition=top;verticalAlign=bottom" edge="1" parent="1">
          <mxGeometry x="350" y="572.89" width="100" height="100" as="geometry">
            <mxPoint x="352.5" y="534.8899999999999" as="sourcePoint" />
            <mxPoint x="509.78395061728406" y="534.8899999999999" as="targetPoint" />
          </mxGeometry>
        </mxCell>
        <mxCell id="QTGd4cIYFPN5efrZr3Zm-123" value="- params:&#xa;- seller_id" style="shape=note;align=left" vertex="1" parent="1">
          <mxGeometry x="580" y="410" width="70.03" height="80" as="geometry" />
        </mxCell>
      </root>
    </mxGraphModel>
  </diagram>
</mxfile>
